<svg width="32" height="32" viewBox="0 0 32 32" fill="none" xmlns="http://www.w3.org/2000/svg">
<path d="M0 4C0 1.79086 1.79086 0 4 0H28C30.2091 0 32 1.79086 32 4V28C32 30.2091 30.2091 32 28 32H4C1.79086 32 0 30.2091 0 28V4Z" fill="#FFA49B"></path>
<path d="M21.002 11.8066H17.7007C16.762 11.8066 16 11.0708 16 10.1612V8.90259C16 7.29923 14.6572 6 13 6C11.3428 6 10 7.29923 10 8.90259C10 10.506 11.3428 11.8052 13 11.8052H14.3008C15.2395 11.8052 16.0015 12.5424 16.0015 13.4506V16.4499C16.0015 17.3581 15.2395 18.0953 14.3008 18.0953H13C11.3428 18.0953 10 19.3945 10 20.9979V23.0974C10 24.7008 11.3428 26 13 26C14.6572 26 16 24.7008 16 23.0974V20.9979V19.7393C16 18.8311 16.7605 18.0939 17.7007 18.0939H21.0005C21.5524 18.0939 22.0001 17.6608 22.0001 17.1268V12.7737C22.0015 12.2397 21.5539 11.8066 21.002 11.8066Z" fill="#1B1A1A"></path>
</svg>
